Patient4_TMGait_0pt8_01_right_07_EMG.mot
version=1
nRows=33
nColumns=33
inDegrees=no
endheader
time	1LAddLong	2LGlutMax	3LGlutMed	4LIliopsoas	5LSemiMemb	6LBicFemLong	7LRecFem	8LVastMed	9LVastLat	10LGasMed	11LTibAnt	12lTibPost	13LPeroneusLong	14LSol	15LExtDigLong	16LFlexDigLong	17RAddLong	18RGlutMax	19RGlutMed	20RIliopsoas	21RSemiMemb	22RBicFemLong	23RRecFem	24RVastMed	25RVastLat	26RGasMed	27RTibAnt	28RTibPost	29RPeroneusLong	30RSol	31RExtDigLong	32RFlexDigLong
8.385	0.0354	-0.21271	-0.040436	0.00946	0.103	-0.17288	0.096283	-0.019989	0.002747	0.000916	-0.19806	0.005951	0.015411	-0.12405	-0.048065	0.002747	0.029449	-0.19608	-0.25559	0.028839	0.3981	-0.059509	-0.2533	-0.11154	0.011749	-0.011444	-0.099945	0.033722	0.31036	-0.37552	0.001678	-0.008698
8.386	0.01297	-0.14191	0.010529	0.002594	0.067444	-0.00946	0.15289	-0.021973	0.009766	0.018616	-0.23727	-0.007782	-0.013123	-0.07309	0.061646	-0.003357	0.035706	-0.18127	-0.17761	0.018311	0.35858	-0.10147	-0.2771	-0.10284	0.005493	-0.019226	-0.017242	-0.003357	0.17395	0.045776	0.000458	-0.008698
8.387	-0.021362	-0.050964	0.081635	0.005035	0.045013	0.18143	0.11185	-0.015106	-0.042725	0.009766	-0.1297	0.031128	-0.010223	-0.081482	0.20859	0.003815	0.034943	-0.21393	0.032043	-0.013275	0.37918	-0.13565	-0.28839	-0.006104	0.023956	-0.018158	0.076599	-0.022125	-0.13306	0.11414	0.004425	-0.007935
8.388	-0.029449	-0.019379	0.092468	0.012207	0.034332	0.35187	0.10529	-0.00412	0.006256	-0.012817	-0.15778	-0.003967	0.077667	-0.1033	0.23117	0.006256	0.028534	-0.27054	0.069885	-0.055389	0.39307	-0.041504	-0.27634	0.026245	0.02121	-0.027008	0.11398	-0.014343	-0.22705	0.2713	0.006409	-0.00946
8.389	-0.021515	-0.00946	0.15747	0.020599	0.030365	0.40955	0.043793	0.016632	0.079193	-0.015411	-0.065308	0.005493	0.079498	-0.025024	0.47424	0.001068	0.039978	-0.20111	-0.11307	-0.10452	0.38666	0.001221	-0.23041	-0.000153	0.020752	0.007477	-0.063629	-0.015259	-0.2739	0.1619	0.002136	-0.009308
8.39	-0.020905	0.065308	0.13565	0.010529	-0.018463	0.47043	0.029449	0.038452	-0.002136	-0.012512	-0.003052	0.004272	0.056305	0.060577	0.006714	-0.003204	0.061493	-0.15228	-0.059357	-0.075226	0.3923	-0.006409	-0.21164	-0.072479	-0.007629	0.026245	-0.18707	-0.00824	-0.30029	0.000458	-0.000763	-0.001526
8.391	-0.02655	0.14618	0.12573	0.017395	-0.057373	0.60089	0.03067	0.046692	-0.045929	0.009766	0.038147	0.007477	0.049591	0.029755	-0.020905	-0.014954	0.053558	-0.19073	-0.038452	-0.012207	0.1767	-0.03418	-0.23819	-0.046234	-0.00412	0.038452	0.000153	0.002441	-0.086365	-0.16052	0.004578	-0.010223
8.392	-0.026703	0.21316	0.088348	0.008545	-0.049896	0.69275	0.025635	0.035248	0.04425	0.003052	0.037384	0.005951	0.042572	-0.066071	-0.02121	-0.009003	0.023499	-0.094299	-0.093842	0.096893	0.45853	-0.1152	-0.24811	-0.046082	0.002289	0.046082	0.14252	-0.002441	0.029297	-0.40832	0.000458	-0.012665
8.393	-0.019073	0.23636	0.086365	0.002747	-0.037079	0.63919	-0.052948	0.028992	0.22705	0.007019	0.047607	0.010529	0.03006	-0.090485	-0.007477	-0.009155	-0.006409	0.041351	-0.23361	0.15091	0.29755	0.053101	-0.24033	-0.03067	0.019073	0.040283	0.4068	-0.001373	-0.024872	-0.49515	-0.000153	-0.007629
8.394	-0.039215	0.23804	0.076752	0.010681	-0.055542	0.54916	-0.025177	0.016022	0.17532	0.028992	0.075226	-0.002747	0.043488	-0.061646	-0.063934	0.002289	0.002441	0.04364	-0.16129	0.10971	0.41611	-0.010071	-0.17548	-0.10254	0.010529	0.023956	0.23102	-0.012207	-0.32867	-0.39169	0.001678	-0.00473
8.395	-0.033264	0.20142	0.037689	0.027161	-0.04303	0.47531	0.066071	-0.010834	0.03952	0.033569	0.1088	0.002594	0.079041	-0.048523	-0.052948	-0.000916	0.005341	0.13153	-0.068817	0.031281	0.51331	-0.18219	-0.17105	-0.007782	0.020905	-0.000458	-0.001984	-0.013123	-0.47211	-0.1886	-0.002747	-0.015259
8.396	-0.046387	0.24582	0.024414	0.008545	-0.061646	0.27268	0.023346	-0.020599	-0.036469	0.045624	0.016632	0.009308	0.11414	-0.029144	-0.027618	-0.011139	-0.016022	0.12787	-0.098114	0.018616	0.22263	-0.29358	-0.17548	-0.003815	0.018921	0.009003	0.15259	-0.019226	-0.43854	-0.093842	0.000305	-0.015717
8.397	-0.035858	0.2121	-0.021515	-0.031586	-0.15152	0.14099	-0.036926	-0.013275	-0.048218	0.042725	0.035858	0.007477	0.054321	-0.044861	0.011902	0.003662	-0.033569	0.22171	-0.070496	0.015869	0.22339	-0.24139	-0.15045	0.043793	0.012817	0.017395	0.069122	-0.011749	-0.43304	0.085144	0.001678	-0.013733
8.398	-0.0177	0.16647	-0.046082	-0.032196	-0.20447	-0.015106	-0.032501	-0.008545	-0.064545	0.043793	-0.046692	0.001068	-0.11429	-0.019531	0.02594	-0.006256	-0.014496	0.29923	-0.093842	-0.028992	0.41901	-0.1152	-0.1741	-0.013123	-0.009003	0.017242	0.011597	-0.014954	-0.27344	0.18906	0.001068	-0.00824
8.399	-0.003204	0.057831	-0.042572	-0.003662	-0.2121	-0.11627	0.008087	-0.007324	-0.058289	0.045624	-0.038605	0.003662	-0.11902	0.005798	0.098114	-0.005035	0.016174	0.26672	-0.043793	-0.077667	0.47257	0.001068	-0.21255	-0.064087	-0.027771	0.016174	-0.027771	0.004883	0.19653	-0.15106	-0.00061	-0.007782
8.4	0.037537	0.036011	-0.046387	0.005035	-0.20905	-0.46112	-0.006561	-0.001831	-0.1535	0.036774	-0.087585	0.00351	0.063324	0.021362	0.081635	-0.013275	0.010071	0.29083	-0.040588	-0.095673	0.42999	0.11765	-0.16678	-0.085297	-0.028076	-0.001678	-0.062408	0.036011	0.30823	-0.3656	0.006866	-0.009918
8.401	0.045471	0.076752	-0.008698	0.012054	-0.12421	-0.41473	0.058899	-0.020447	-0.2179	0.028229	-0.070801	0.001526	0.097351	0.04715	0.075073	0.011139	-0.025635	0.3067	-0.001068	-0.13016	0.40314	0.1648	-0.13107	-0.10468	-0.027008	-0.00061	-0.037537	0.016327	0.24155	-0.25284	-0.00061	-0.009766
8.402	0.034637	0.034943	0.030518	-0.003967	0.047913	-0.37811	0.10193	-0.03067	-0.2179	0.027008	-0.021057	0.006409	0.1973	0.040436	0.019379	-0.00412	-0.025635	0.30121	-0.084381	-0.084839	0.44723	0.22476	-0.13412	-0.09552	-0.021362	0.006409	0.10529	-0.004425	0.41641	0.061188	-0.000153	-0.013275
8.403	0.020752	0.023346	0.04776	0.020294	0.10895	-0.70709	0.1178	-0.012054	-0.22339	0.02182	0.008698	0.001221	0.1239	0.009918	0.090027	0.002594	-0.034332	0.26291	-0.042572	-0.018311	0.43045	0.21805	-0.16968	-0.049896	-0.00824	0.014191	0.23941	-0.003052	0.59494	0.24231	-0.003967	-0.012054
8.404	0.004883	0.007629	0.051117	0.023651	0.13336	-0.53482	0.074005	-0.009003	-0.1593	0.017853	0.010223	0.007629	0.014954	-0.039215	0.055084	-0.007324	-0.030823	0.29511	-0.020905	0.091553	0.34317	0.14008	-0.18601	0.022278	0.007324	0.005341	0.1239	-0.005493	0.033569	0.049896	0.001984	-0.007477
8.405	0.016785	0.036469	0.059814	0.006256	0.11185	-0.24994	0.061798	0.000153	-0.074005	0.027008	0.006866	0.002899	-0.065918	0.036774	0.36407	-0.003662	0.011139	0.21561	-0.002289	0.21668	0.27084	0.023193	-0.16098	0.04364	0.029144	-0.023193	0.037994	-0.079803	0.017242	-0.16922	0.002441	-0.021362
8.406	0.012665	0.06958	0.082245	0.002289	0.12299	-0.079956	0.048523	0.001526	-0.036011	-0.000458	-0.070953	0.006561	0.036621	0.077515	-0.10834	-0.00061	0.025787	0.13855	-0.08606	0.18707	0.26077	0.044403	-0.19516	0.063782	0.05249	-0.018158	0.045319	-0.001831	-0.081787	0.38635	0.001373	-0.01236
8.407	-0.010681	0.041351	0.044861	-0.005493	0.13718	-0.15595	0.087128	-0.009155	0.053711	0.001068	-0.088959	0.005188	0.16953	0.099487	0.26794	0.002594	0.035248	0.17899	-0.18112	0.1004	0.22461	0.057373	-0.26993	0.072632	0.072937	-0.009308	0.034027	0.043488	-0.089111	0.29358	0.002899	-0.016632
8.408	-0.001678	0.042419	0.06012	0.00412	0.14282	-0.36575	0.056	0.006714	0.10086	-0.036163	-0.081329	0.00885	0.27161	0.16663	-0.11917	0.001831	0.038757	0.20309	-0.12299	0.005798	0.18845	0.064087	-0.2034	0.050354	0.081482	-0.014954	-0.04715	0.003662	-0.12497	0.074005	-0.000916	-0.012207
8.409	-0.003662	-0.024261	0.07019	0.009155	0.11658	-0.12375	0.028839	0.024261	0.18967	0.009766	0.007629	0.006561	0.3006	0.14618	-0.19058	-0.000153	0.052185	0.16571	0.065918	-0.026245	0.13916	-0.021057	-0.17929	-0.057983	0.058899	-0.018158	-0.057373	-0.011292	-0.13138	-0.21668	0.002747	-0.014801
8.41	0.001831	-0.050659	0.074921	0.015106	0.046844	0.14801	0.047302	0.020142	0.18249	0.024261	0.12665	0.003815	-0.020752	0.11047	-0.078278	-0.009155	0.051117	0.06134	0.17303	-0.012054	0.15778	-0.020447	-0.15106	-0.036621	0.063477	0.005646	-0.091858	-0.004578	0.025177	-0.15701	-0.000916	-0.007019
8.411	0.002136	-0.065918	0.026093	0.023041	-0.011749	0.41702	0.056458	0.015869	0.24353	0.043182	0.11368	0.007477	-0.1474	0.086823	-0.15076	0.000458	0.036469	0.057983	0.17761	0.081177	0.22964	-0.071411	-0.15015	-0.032501	0.067749	0.01236	0.24567	-0.009308	0.04715	0.005493	0.002136	-0.006409
8.412	-0.011597	0.022278	0.024872	0.005341	0.027008	0.60928	0.045319	0.011597	0.22888	0.037079	0.091095	0.002441	-0.1152	0.1004	-0.19455	-0.012817	0.017395	0.054932	0.31036	0.1033	0.13077	-0.077362	-0.19745	-0.010223	0.083313	0.005035	0.62454	0.000305	-0.048828	-0.044708	-0.000458	-0.010529
8.413	-0.013733	0.14587	0.016174	0.019531	0.14694	0.70267	0.054016	0	0.12909	-0.012817	0.052643	0.003967	-0.079193	0.15503	0.10468	-0.003052	-0.015564	0.090332	0.17975	0.070648	0.055542	-0.11337	-0.17517	0.091858	0.11826	-0.016174	0.85129	-0.009003	-0.15457	0.03418	0.001221	-0.005951
8.414	0.001984	0.19547	0.028381	0.014343	0.18585	0.62958	0.088043	-0.00946	-0.047455	0.006104	0.10056	0.005341	0.012207	0.091248	-0.18951	0.001831	-0.022888	0.17654	0.11826	0.00885	0.083466	-0.11368	-0.2417	0.080414	0.10742	-0.036316	0.70679	-0.008087	-0.10071	0.13718	-0.001526	-0.014343
8.415	-0.002441	0.10254	-0.00473	0.010986	0.14282	0.51209	0.10788	-0.02243	-0.15366	-0.002136	0.093994	0.005798	0.56946	0.035553	-0.34836	-0.002747	-0.018005	0.17822	0.084839	-0.036621	0.19684	-0.11444	-0.18249	0.071564	0.091248	-0.04425	-0.23804	-0.011902	0.041351	0.23712	-0.00061	-0.015564
8.416	0.009155	-0.097504	-0.058441	0.002899	0.082245	0.09903	0.034485	-0.011139	-0.16892	-0.046082	-0.1683	0.008392	0.4808	-0.024567	0.052795	-0.002136	-0.001678	0.12589	0.11673	-0.10834	0.086212	-0.037231	-0.12299	0.037079	0.048218	-0.033875	-0.94421	-0.002289	0.1471	0.16022	-0.002136	-0.002136
8.417	0.003052	-0.21271	-0.032959	0.013428	0.027161	-0.50262	-0.065765	-0.00412	-0.15106	-0.043488	-0.3093	0.009613	0.28061	-0.076294	-0.034943	0.003815	0.011444	0.11276	0.1947	-0.16266	0.079346	-0.034637	-0.10803	-0.017548	0.028687	-0.026703	-0.80048	-0.003357	0.10757	0.054169	0.002441	-0.001678
